#define 2013f4ff695d4225aafa17fd964039b78B2CT0dfJIGk1nDp_width 64
#define 2013f4ff695d4225aafa17fd964039b78B2CT0dfJIGk1nDp_height 64
static char 2013f4ff695d4225aafa17fd964039b78B2CT0dfJIGk1nDp_bits[] = {
  0x00, 0x00, 0x00, 0x00, 0x00, 0x00, 0x00, 0x00, 0x00, 0x00, 0x00, 0x00, 
  0x00, 0x00, 0x00, 0x00, 0x00, 0x00, 0x00, 0x00, 0x00, 0x00, 0x00, 0x00, 
  0x00, 0x00, 0x00, 0x00, 0x00, 0x00, 0x00, 0x00, 0x00, 0x00, 0x00, 0x00, 
  0x00, 0x00, 0x00, 0x00, 0x00, 0x00, 0x00, 0x00, 0x00, 0x00, 0x00, 0x00, 
  0x00, 0x00, 0x00, 0x00, 0x00, 0x00, 0x00, 0x00, 0x00, 0x00, 0x00, 0x00, 
  0x00, 0x00, 0x00, 0x00, 0x00, 0x00, 0x00, 0x00, 0x00, 0x00, 0x00, 0x00, 
  0x00, 0x00, 0x00, 0x00, 0x00, 0x00, 0x00, 0x00, 0x00, 0x00, 0x00, 0x00, 
  0x00, 0x00, 0x00, 0x00, 0x00, 0x00, 0x00, 0x1C, 0x18, 0x00, 0x00, 0x00, 
  0x00, 0x00, 0x00, 0x3E, 0x3E, 0x00, 0x00, 0x00, 0x00, 0x00, 0x18, 0x7E, 
  0x7E, 0x00, 0x00, 0x00, 0x00, 0x00, 0x3E, 0x7E, 0x7E, 0x00, 0x00, 0x00, 
  0x00, 0x00, 0x7E, 0x7E, 0x7E, 0x00, 0x00, 0x00, 0x00, 0x00, 0x7E, 0x7E, 
  0x7E, 0x00, 0x00, 0x00, 0x00, 0x00, 0x7E, 0x7E, 0x7E, 0x1C, 0x00, 0x00, 
  0x00, 0x00, 0x7E, 0x7E, 0x3F, 0x3E, 0x00, 0x00, 0x00, 0x00, 0xFE, 0x7E, 
  0x7E, 0x7E, 0x00, 0x00, 0x00, 0x00, 0xFC, 0xFE, 0x7F, 0x7E, 0x00, 0x00, 
  0x00, 0x00, 0xFC, 0x7E, 0x3E, 0x7F, 0x00, 0x00, 0x00, 0x40, 0xFC, 0x7E, 
  0x3F, 0x3F, 0x00, 0x00, 0x00, 0x00, 0xFC, 0x7E, 0x7E, 0x3F, 0x00, 0x00, 
  0x00, 0x00, 0xFC, 0x7E, 0x3F, 0x3F, 0x00, 0x00, 0x00, 0x00, 0xFC, 0xFD, 
  0xBF, 0x3F, 0x00, 0x00, 0x00, 0x00, 0xF8, 0x7F, 0xBF, 0x1F, 0x00, 0x00, 
  0x00, 0x00, 0xF8, 0xFD, 0xBF, 0x1F, 0x00, 0x00, 0x00, 0x00, 0xF8, 0xFD, 
  0xFF, 0x1F, 0x00, 0x00, 0x00, 0x00, 0xF8, 0xFF, 0xFF, 0x1F, 0x00, 0x00, 
  0x00, 0x00, 0xF8, 0xFF, 0xFF, 0x8F, 0x00, 0x00, 0x00, 0x3E, 0xF8, 0xFF, 
  0xFF, 0x0F, 0x00, 0x00, 0x00, 0xFF, 0xF8, 0xFF, 0xFF, 0x0F, 0x00, 0x00, 
  0x00, 0xFF, 0xF1, 0xFF, 0xFF, 0x0F, 0x00, 0x00, 0x00, 0xFE, 0xF3, 0xFF, 
  0xFF, 0x0F, 0x00, 0x00, 0x00, 0xFC, 0xF7, 0xFF, 0xFF, 0x07, 0x00, 0x00, 
  0x40, 0xF8, 0xFF, 0xFF, 0xFF, 0x07, 0x00, 0x00, 0x00, 0xF8, 0xFF, 0xFF, 
  0xFF, 0x07, 0x00, 0x00, 0x00, 0xF0, 0xFF, 0xFF, 0xFF, 0x07, 0x00, 0x00, 
  0x00, 0xE0, 0xFF, 0xFF, 0xFF, 0x07, 0x00, 0x00, 0x00, 0xC0, 0xFF, 0xFF, 
  0xFF, 0x27, 0x00, 0x00, 0x00, 0xC8, 0xFF, 0xFF, 0xFF, 0x07, 0x00, 0x00, 
  0x00, 0x80, 0xFF, 0xFF, 0xFF, 0x03, 0x00, 0x00, 0x00, 0x80, 0xFF, 0xFF, 
  0xFF, 0x03, 0x00, 0x00, 0x00, 0x08, 0xFF, 0xFF, 0xFF, 0x07, 0x00, 0x00, 
  0x00, 0x00, 0xFE, 0xFF, 0xFF, 0x03, 0x00, 0x00, 0x00, 0x00, 0xFE, 0xFF, 
  0xFF, 0x03, 0x00, 0x00, 0x00, 0x00, 0xFC, 0xFF, 0xFF, 0x03, 0x00, 0x00, 
  0x00, 0x00, 0xF8, 0xFF, 0xFF, 0x03, 0x00, 0x00, 0x00, 0x00, 0xF8, 0xFF, 
  0xFF, 0x03, 0x00, 0x00, 0x00, 0x00, 0xE0, 0xFF, 0xFF, 0x03, 0x00, 0x00, 
  0x00, 0x00, 0xC0, 0xFF, 0xFF, 0x13, 0x00, 0x00, 0x00, 0x00, 0x00, 0x10, 
  0x10, 0x00, 0x00, 0x00, 0x00, 0x00, 0x18, 0x00, 0x00, 0x00, 0x00, 0x00, 
  0x00, 0x00, 0x00, 0x84, 0x08, 0x00, 0x00, 0x00, 0x00, 0x00, 0x00, 0x00, 
  0x80, 0x00, 0x00, 0x00, 0x00, 0x00, 0x00, 0x02, 0x00, 0x00, 0x00, 0x00, 
  0x00, 0x00, 0x00, 0x00, 0x08, 0x00, 0x00, 0x00, 0x00, 0x00, 0x00, 0x00, 
  0x00, 0x00, 0x00, 0x00, 0x00, 0x00, 0x00, 0x00, 0x00, 0x00, 0x00, 0x00, 
  0x00, 0x00, 0x00, 0x00, 0x00, 0x00, 0x00, 0x00, 0x00, 0x00, 0x00, 0x00, 
  0x00, 0x00, 0x00, 0x00, 0x00, 0x00, 0x00, 0x00, 0x00, 0x00, 0x00, 0x00, 
  0x00, 0x00, 0x00, 0x00, 0x00, 0x00, 0x00, 0x00, };
